<svg id="Layer_1" data-name="Layer 1" xmlns="http://www.w3.org/2000/svg" viewBox="0 0 100 75"><defs><style>.cls-1{fill:#2c6791;}.cls-2{fill:#004e6f;}</style></defs><path class="cls-1" d="M24.93,8.53c.34.41.65.82,1,1.25A24.31,24.31,0,0,1,30.14,29c-.08.44-.31.46-.63.77a23,23,0,0,0-5.17,6.53,15.74,15.74,0,0,0-1,3.47,1.3,1.3,0,0,0,.45,1.13A1.38,1.38,0,0,0,25,40.6c1.28-1.39,2.52-2.84,3.71-4.32.81-1,1.51-2.11,2.34-3.13a11.28,11.28,0,0,1-.84,6.43c-.43,1.28-1,1.43-1.68,2.2A12.24,12.24,0,0,0,26.28,44c-.88,1.4-.83,2.53.48,3.51a4,4,0,0,0,.65.29,4.47,4.47,0,0,1-1.23.46c0,1-.87,1.69-1.12,2.16a4.26,4.26,0,0,0-.2,1,45.48,45.48,0,0,1-2.59,13.2,4.48,4.48,0,0,1-2.58,2.83c-.17.07-.94.47-1,.49a1.74,1.74,0,0,0,0-1.94c-.32-.44-1.61-.41-2-.81.07,0,.63,0,.7,0,.66,0,1.28,0,1.47-.81a1.69,1.69,0,0,0-.84-1.75,6.87,6.87,0,0,1-1.13-.78,1.39,1.39,0,0,1-.13-1,.06.06,0,0,1,.08,0s0,0,0,0a12.07,12.07,0,0,1,1.34,1.22c.23.2.52.45.72.44s.33-.26.58-.43a3.88,3.88,0,0,0,1.12-1.44,4.27,4.27,0,0,0-.19-1.49,12,12,0,0,1-.14-6,14.31,14.31,0,0,1,1.67-4.06,4.5,4.5,0,0,0,0-5.56c-2.24-3.17-2-6.37-.17-9.62a29.88,29.88,0,0,1,4.79-6.23c.38-.39.63-.43.74-1a26.05,26.05,0,0,0-2.45-18C24.64,8.6,23.53,7.06,23.51,7s1.38,1.58,1.42,1.56ZM12.8,42.1c-.07-.91-.08-1.76-.22-2.6A16.11,16.11,0,0,0,8,31.06a3.57,3.57,0,0,0-.55-.55,4.07,4.07,0,0,1-1.62-3.2,23.6,23.6,0,0,1,5.76-19A12.93,12.93,0,0,1,12.73,7c-1.33,2.33-2.92,4.6-3.68,8.49a28.17,28.17,0,0,0,0,11.24,2.36,2.36,0,0,0,.64,1.05,24.07,24.07,0,0,1,5,6.92,15,15,0,0,1,1.07,4.06c.21,1.86-.95,3.07-3,3.35Zm-2,5.88c1.8-1.2,3.14-.83,3.9.81A18.36,18.36,0,0,1,16.09,55c-.46-1.12-1.09-2.88-1.53-4-.21-.53-.48-.91-1.13-.9a1.08,1.08,0,0,1-1.13-.9,2.15,2.15,0,0,0-.29-.83c-.26-.29-.7-.3-1.22-.36Zm-.63-5.71a8.85,8.85,0,0,1-4.38-6.6c1.29.55,3.64,4,4.38,6.6Z"/><path class="cls-2" d="M88.22,44.7a6.57,6.57,0,0,0-1.83.25,3.58,3.58,0,0,0-.79.3.91.91,0,0,0-.18-.21,1.13,1.13,0,0,0-.83-.34H83.33v9.53h2.44V49.28a2.1,2.1,0,0,1,.49-1.67,2,2,0,0,1,1.51-.49h1V44.7ZM43.56,41.88H42.31V53.06a1.11,1.11,0,0,0,.35.84,1.16,1.16,0,0,0,.83.33h1.26V43.06a1.11,1.11,0,0,0-.35-.84,1.18,1.18,0,0,0-.84-.34ZM50,52.3c1.45,0,1.91-1.55,1.91-2.87s-.46-2.88-1.91-2.88-1.9,1.57-1.9,2.88S48.51,52.3,50,52.3Zm0-7.83c2.76,0,4.29,1.85,4.29,4.93S52.73,54.32,50,54.32,45.7,52.48,45.7,49.4s1.46-4.93,4.27-4.93ZM37.32,52.3c-1.45,0-1.89-1.55-1.89-2.87s.44-2.88,1.89-2.88a1.65,1.65,0,0,1,1.54,1H41.4a3.89,3.89,0,0,0-4.07-3.1c-2.82,0-4.28,1.85-4.28,4.93s1.46,4.92,4.28,4.92a3.89,3.89,0,0,0,4.07-3.09H39.73a1.2,1.2,0,0,0-.7.25,2.12,2.12,0,0,1-1.71.82ZM63,45.05a1.13,1.13,0,0,0-.86-.36H60.89v6a1.48,1.48,0,0,1-.51,1.25,1.86,1.86,0,0,1-2.28,0,1.48,1.48,0,0,1-.51-1.25V45.9a1.19,1.19,0,0,0-.33-.85,1.12,1.12,0,0,0-.86-.36H55.18v5.54c0,1.69.47,2.73,1.29,3.31a5.29,5.29,0,0,0,5.53,0c.83-.58,1.3-1.62,1.3-3.31V45.9A1.19,1.19,0,0,0,63,45.05Zm9.65-2.83a1.18,1.18,0,0,0-.84-.34H70.56v3.54a3.4,3.4,0,0,0-2.35-1c-2.49,0-3.94,1.85-3.94,4.93s1.49,4.92,4.34,4.92S73,52.49,73,49.44h0V43.06a1.15,1.15,0,0,0-.35-.84Zm-4,10.08c-1.48,0-1.93-1.55-1.93-2.87s.45-2.88,1.93-2.88,1.94,1.55,2,2.86v0C70.56,50.75,70.09,52.3,68.61,52.3Zm13.82-3.45a1.32,1.32,0,0,1-.13.56,1.12,1.12,0,0,1-.21.29,1.06,1.06,0,0,1-.82.36h-5c.07,1.13.64,2.24,1.87,2.24a2.12,2.12,0,0,0,1.7-.82,1.2,1.2,0,0,1,.7-.25h1.67a3.88,3.88,0,0,1-4.07,3.09c-2.82,0-4.28-1.84-4.28-4.92s1.46-4.93,4.28-4.93a3.88,3.88,0,0,1,4.07,3.1,7.6,7.6,0,0,1,.19,1.13v.15Zm-4.26-2.3a1.74,1.74,0,0,0-1.76,1.67h3.53a1.74,1.74,0,0,0-1.77-1.67ZM97,47.11a2.28,2.28,0,0,0-1-2,5.22,5.22,0,0,0-2.94-.67,4,4,0,0,0-2.69.81,2.81,2.81,0,0,0-1,1.84h2.34a.94.94,0,0,1,.57-.57,2.43,2.43,0,0,1,.88-.14,3,3,0,0,1,1,.15.69.69,0,0,1,.54.69c0,.38-.51.73-1.53.87a6.13,6.13,0,0,0-3.1,1,2.67,2.67,0,0,0-.92,2.19,2.64,2.64,0,0,0,.94,2.27,4.67,4.67,0,0,0,2.91.78,5.23,5.23,0,0,0,2.93-.73,2.23,2.23,0,0,0,1.08-2V47.11Zm-2.63,4.63a2.08,2.08,0,0,1-1.54.56A1.94,1.94,0,0,1,91.72,52a.92.92,0,0,1-.31-.73,1,1,0,0,1,.24-.66c.35-.37.72-.42,1.54-.6a7.27,7.27,0,0,0,1.54-.52v.72C94.73,50.84,94.75,51.38,94.37,51.74Z"/></svg>