<svg
xmlns="http://www.w3.org/2000/svg"
version="1.1"
viewBox="0 0 925.26 131.584"
>
<defs>
   <linearGradient
      x1="-1578.8"
      x2="-1379.5"
      y1="837.78"
      y2="837.78"
      gradientTransform="translate(888.64 -6776.7)"
      gradientUnits="userSpaceOnUse"
   >
      <stop offset="0"></stop>
      <stop offset="1" stopOpacity="0"></stop>
   </linearGradient>
</defs>
<g transform="translate(5522.4 4520.407)">
   <g>
      <g>
      <g fill="#f8a915" transform="translate(-4431.8 -4817.5)">
         <path d="M-1090.6 423.64h23.76l3.24-43.2c.54-8.1.9-21.78.9-21.78s7.02 11.88 12.06 18.54l22.32 29.52h2.16l22.14-29.7c5.04-6.66 11.34-18.54 11.34-18.54s.54 13.68 1.08 21.78l3.24 43.38h25.02l-9.9-123.66h-2.52l-42.12 57.78c-3.78 5.22-8.64 13.32-8.64 13.32s-4.86-7.92-8.82-13.32l-42.84-57.78h-2.52z"></path>
         <path
            fill="#f8a915"
            fillOpacity="1"
            d="M-882.5 425.26c35.28 0 63.36-26.64 63.36-62.82s-28.08-62.82-63.36-62.82-63.36 26.64-63.36 62.82 28.08 62.82 63.36 62.82zm0-22.5c-22.32 0-37.44-17.46-37.44-40.32s15.12-40.32 37.44-40.32 37.44 17.46 37.44 40.32-15.12 40.32-37.44 40.32z"
         ></path>
         <path d="M-699.13 424.72h2.52V301.24h-23.58v51.3c0 8.46 1.62 22.32 1.62 22.32s-8.46-11.16-14.4-16.74l-61.74-57.96h-2.52v123.48h23.58v-51.3c0-8.82-1.8-22.32-1.8-22.32s8.46 10.98 14.58 16.74z"></path>
         <path d="M-612.15 425.26c35.28 0 63.36-26.64 63.36-62.82s-28.08-62.82-63.36-62.82-63.36 26.64-63.36 62.82 28.08 62.82 63.36 62.82zm0-22.5c-22.32 0-37.44-17.46-37.44-40.32s15.12-40.32 37.44-40.32 37.44 17.46 37.44 40.32-15.12 40.32-37.44 40.32z"></path>
         <path d="M-526.87 423.64h80.64V401.5h-55.44V301.24h-25.2z"></path>
         <path d="M-346.4 423.64h25.2V323.38h34.92v-22.14h-95.04v22.14h34.92z"></path>
         <path d="M-268.12 423.64h25.2v-37.26h52.38v37.26h25.2v-122.4h-25.2v62.64h-52.38v-62.64h-25.2z"></path>
      </g>
      </g>
   </g>
   <path
      fill="#f8a915"
      strokeWidth="0.161"
      d="M-4837.755-4388.823l-28.508-6.712.839-113.732 20.336-11.116z"
   ></path>
   <path
      fill="#7a818b"
      strokeWidth="0.161"
      d="M-4843.654-4520.407l17.75 10.455 4.106 112.035-14.742 9.092c-2.05-43.96-5.4-87.615-7.113-131.582z"
   ></path>
   <path
      fill="#f8a915"
      fillOpacity="1"
      strokeWidth="1.93"
      d="M.937 123.724c.075-7.642 9.822-119.016 10.472-119.666.682-.682 26.849 33.535 49.885 65.233 2.257 3.105 3.808 3.934 4.483 2.394.99-2.256 16.66-24.148 38.842-54.262 5.739-7.791 10.809-13.792 11.266-13.334.63.629 10.368 112.21 10.442 119.635.008.796-5.195 1.447-11.563 1.447-6.367 0-11.641-.65-11.72-1.447-.078-.796-1.164-15.774-2.412-33.284l-2.269-31.837-4.66 7.718c-2.563 4.245-10.337 15.435-17.275 24.867l-12.616 17.15-5.481-6.537c-3.015-3.596-10.844-14.12-17.398-23.389-7.35-10.396-12.399-15.94-13.178-14.471-.695 1.309-1.878 14.95-2.629 30.315-.751 15.365-1.78 28.606-2.286 29.426-1.186 1.918-21.923 1.958-21.903.042z"
      transform="translate(-5522.4 -4519.442)"
   ></path>
</g>
</svg>